<svg width="2834" height="2816" viewBox="0 0 2834 2816" fill="none" xmlns="http://www.w3.org/2000/svg">
<g clip-path="url(#clip0_3928_2105)">
<rect width="2834" height="2816" fill="white"/>
<path d="M1693.23 2500.32H1091.89V2541.57H1693.23V2500.32Z" fill="#156C52"/>
<path d="M302.422 2265.36C302.422 2252.8 302.422 2242.04 302.422 2238.45C302.422 2233.07 300.663 2229.48 297.147 2229.48H290.114C290.114 2229.48 288.355 2229.48 288.355 2227.69V2224.1C288.355 2224.1 288.355 2222.31 290.114 2222.31C291.872 2222.31 297.147 2222.31 314.73 2222.31C323.521 2222.31 337.587 2222.31 344.621 2222.31C356.928 2222.31 365.72 2227.69 372.753 2233.07C378.028 2238.45 381.544 2245.63 381.544 2251.01C381.544 2272.53 365.72 2281.5 351.654 2281.5V2283.29C356.928 2285.09 358.687 2288.67 362.203 2292.26C363.962 2294.05 372.753 2310.2 374.511 2311.99C376.27 2313.78 383.303 2326.34 386.819 2329.93C388.578 2331.72 395.611 2333.51 399.127 2333.51C400.886 2333.51 400.886 2333.51 400.886 2335.31V2338.89C400.886 2340.69 400.886 2340.69 399.127 2340.69C397.369 2340.69 393.852 2340.69 381.544 2340.69C376.27 2340.69 370.995 2340.69 365.72 2340.69C360.445 2337.1 351.654 2317.37 348.137 2311.99C342.862 2301.23 335.829 2288.67 328.796 2288.67H323.521V2297.64C323.521 2306.61 323.521 2326.34 323.521 2328.13C323.521 2331.72 325.279 2335.31 327.038 2335.31H334.071C335.829 2335.31 335.829 2335.31 335.829 2337.1V2340.69C335.829 2342.48 335.829 2342.48 334.071 2342.48C334.071 2342.48 330.554 2342.48 312.971 2342.48C295.389 2342.48 291.872 2342.48 290.114 2342.48C288.355 2342.48 288.355 2342.48 288.355 2340.69V2337.1V2335.31H293.63C297.147 2335.31 300.663 2333.51 300.663 2329.93C300.663 2313.78 300.663 2297.64 300.663 2283.29V2265.36H302.422ZM323.521 2283.29C327.038 2283.29 328.796 2283.29 330.554 2283.29C351.654 2283.29 356.928 2263.56 356.928 2254.59C356.928 2247.42 355.17 2240.24 351.654 2236.66C346.379 2231.28 339.346 2229.48 334.071 2229.48C330.554 2229.48 328.796 2229.48 328.796 2231.28C327.038 2231.28 327.038 2233.07 327.038 2234.86L323.521 2283.29Z" fill="black"/>
<path d="M444.842 2277.91C451.875 2277.91 458.909 2277.91 460.667 2276.12C464.183 2276.12 465.942 2274.32 467.7 2270.74C469.458 2268.94 471.217 2263.56 471.217 2259.98C471.217 2258.18 471.217 2258.18 472.975 2258.18H476.491C476.491 2258.18 478.25 2258.18 478.25 2259.98C478.25 2263.56 478.25 2270.74 478.25 2276.12C478.25 2283.29 478.25 2290.47 480.008 2294.05C480.008 2295.85 480.008 2295.85 478.25 2295.85H474.733C474.733 2295.85 472.975 2295.85 472.975 2294.05C472.975 2292.26 471.217 2286.88 469.458 2285.09C467.7 2281.5 464.183 2279.7 460.667 2279.7C457.15 2279.7 451.875 2277.91 444.842 2277.91V2286.88C444.842 2295.85 444.842 2311.99 444.842 2313.78C444.842 2322.75 446.601 2324.55 448.359 2326.34C450.117 2328.13 453.634 2328.13 462.425 2328.13C465.942 2328.13 471.217 2328.13 474.733 2328.13C478.25 2328.13 483.525 2326.34 487.041 2322.75C490.558 2319.16 499.349 2308.4 502.866 2304.82H504.624L508.14 2306.61C508.14 2306.61 508.14 2306.61 508.14 2308.4L501.107 2333.51C501.107 2335.31 499.349 2335.31 497.591 2335.31C497.591 2335.31 494.074 2335.31 483.525 2335.31C472.975 2335.31 455.392 2335.31 429.018 2335.31C423.743 2335.31 418.468 2335.31 414.952 2335.31C411.435 2335.31 409.677 2335.31 407.918 2335.31C406.16 2335.31 406.16 2335.31 406.16 2333.51V2329.93C406.16 2328.13 406.16 2328.13 407.918 2328.13H413.193C420.226 2328.13 421.985 2326.34 421.985 2320.96V2267.15C421.985 2252.8 421.985 2233.07 421.985 2231.28C421.985 2225.9 420.226 2224.1 414.952 2224.1H407.918C407.918 2224.1 407.918 2224.1 407.918 2222.31V2218.72C407.918 2218.72 407.918 2216.93 409.677 2216.93C413.193 2216.93 418.468 2216.93 432.534 2216.93H488.799C490.558 2216.93 494.074 2216.93 495.833 2216.93H497.591C497.591 2218.72 502.866 2242.04 504.624 2243.83V2245.63L502.866 2247.42H501.107C501.107 2245.63 485.283 2231.28 481.766 2229.48C478.25 2227.69 474.733 2225.9 469.458 2225.9H448.359L444.842 2277.91ZM453.634 2211.55L474.733 2188.23C476.491 2186.44 478.25 2184.64 481.766 2184.64C487.041 2184.64 488.799 2188.23 488.799 2193.61C488.799 2197.2 485.283 2198.99 483.525 2200.79L457.15 2213.34C457.15 2213.34 457.15 2213.34 455.392 2213.34L453.634 2211.55Z" fill="black"/>
<path d="M557.374 2297.64C557.374 2304.82 557.374 2328.13 557.374 2329.93C557.374 2333.51 559.132 2335.31 562.648 2335.31H571.44C573.198 2335.31 573.198 2335.31 573.198 2337.1V2340.69C573.198 2340.69 573.198 2342.48 571.44 2342.48C569.682 2342.48 564.407 2342.48 545.066 2342.48C530.999 2342.48 523.966 2342.48 522.208 2342.48C520.45 2342.48 520.45 2342.48 520.45 2340.69V2337.1C520.45 2337.1 520.45 2335.31 522.208 2335.31H525.725C530.999 2335.31 532.758 2335.31 532.758 2329.93C532.758 2328.13 532.758 2303.02 532.758 2283.29V2265.36C532.758 2254.59 532.758 2236.66 532.758 2234.86C532.758 2231.28 530.999 2231.28 527.483 2231.28H520.45C520.45 2231.28 518.691 2231.28 518.691 2229.48V2225.9C518.691 2225.9 518.691 2224.1 520.45 2224.1C522.208 2224.1 527.483 2224.1 545.066 2224.1C548.582 2224.1 557.374 2224.1 562.648 2224.1C581.99 2224.1 592.539 2225.9 601.331 2233.07C608.364 2238.45 613.639 2247.42 613.639 2258.18C613.639 2277.91 597.814 2290.47 571.44 2290.47C566.165 2290.47 562.648 2290.47 559.132 2290.47V2297.64H557.374ZM557.374 2285.09C560.89 2285.09 564.407 2286.88 567.923 2286.88C573.198 2286.88 580.231 2281.5 583.748 2276.12C587.264 2270.74 587.264 2265.36 587.264 2258.18C587.264 2234.86 571.44 2231.28 564.407 2231.28C560.89 2231.28 559.132 2231.28 557.374 2231.28V2285.09Z" fill="black"/>
<path d="M634.738 2238.45C634.738 2233.07 632.98 2229.48 629.463 2229.48H622.43C620.672 2229.48 620.672 2229.48 620.672 2227.69V2224.1C620.672 2222.31 620.672 2222.31 622.43 2222.31C624.188 2222.31 631.222 2222.31 648.804 2222.31C662.871 2222.31 669.904 2222.31 671.662 2222.31C673.42 2222.31 673.42 2222.31 673.42 2224.1V2227.69C673.42 2227.69 673.42 2229.48 671.662 2229.48H668.145C662.871 2229.48 659.354 2233.07 659.354 2236.66C659.354 2238.45 659.354 2249.21 659.354 2258.18V2268.94C659.354 2277.91 659.354 2297.64 659.354 2303.02C659.354 2310.2 661.112 2317.37 664.629 2322.75C669.904 2329.93 676.937 2331.72 683.97 2331.72C689.245 2331.72 698.036 2328.13 703.311 2324.55C710.344 2319.16 713.861 2310.2 713.861 2297.64V2272.53C713.861 2258.18 712.103 2240.24 712.103 2236.66C712.103 2233.07 708.586 2229.48 706.828 2229.48H701.553C699.795 2229.48 699.795 2229.48 699.795 2227.69V2224.1C699.795 2224.1 699.795 2222.31 701.553 2222.31C703.311 2222.31 710.344 2222.31 720.894 2222.31C729.685 2222.31 734.96 2222.31 736.719 2222.31C738.477 2222.31 738.477 2222.31 738.477 2224.1V2227.69C738.477 2229.48 738.477 2229.48 736.719 2229.48H731.444C726.169 2229.48 724.411 2234.86 724.411 2234.86C724.411 2236.66 724.411 2259.97 724.411 2261.77C724.411 2263.56 724.411 2292.26 724.411 2299.43C722.652 2311.99 719.136 2322.75 710.344 2329.93C703.311 2337.1 692.761 2340.69 682.212 2340.69C675.179 2340.69 664.629 2338.89 657.596 2337.1C650.563 2333.51 643.53 2326.34 638.255 2315.58C634.738 2308.4 634.738 2297.64 634.738 2276.12V2238.45Z" fill="black"/>
<path d="M761.336 2268.94C761.336 2263.56 761.336 2243.83 761.336 2240.25C761.336 2231.28 757.82 2231.28 752.545 2231.28H747.27C745.512 2231.28 745.512 2231.28 745.512 2229.48V2225.9C745.512 2224.1 745.512 2224.1 747.27 2224.1C749.028 2224.1 757.82 2224.1 771.886 2224.1C777.161 2224.1 785.952 2224.1 798.26 2224.1C810.568 2224.1 819.36 2225.9 826.393 2227.69C835.184 2233.07 838.701 2240.25 838.701 2249.21C838.701 2259.98 831.668 2270.74 815.843 2276.12C835.184 2281.5 845.734 2290.47 845.734 2308.4C845.734 2317.37 840.459 2329.93 833.426 2333.51C826.393 2337.1 815.843 2338.89 796.502 2338.89C794.744 2338.89 791.227 2338.89 785.952 2338.89C780.677 2338.89 777.161 2338.89 773.644 2338.89C764.853 2338.89 759.578 2338.89 756.061 2338.89C752.545 2338.89 750.787 2338.89 749.028 2338.89C747.27 2338.89 747.27 2338.89 747.27 2337.1V2333.51C747.27 2331.72 747.27 2331.72 749.028 2331.72H754.303C759.578 2331.72 759.578 2329.93 761.336 2324.55C761.336 2320.96 761.336 2299.44 761.336 2285.09V2268.94ZM784.194 2276.12C791.227 2276.12 801.777 2276.12 805.293 2270.74C810.568 2265.36 812.326 2258.18 812.326 2251.01C812.326 2245.63 810.568 2238.45 805.293 2234.86C800.018 2231.28 791.227 2229.48 789.469 2229.48C785.952 2229.48 782.436 2229.48 782.436 2233.07C782.436 2236.66 782.436 2251.01 782.436 2263.56V2276.12H784.194ZM784.194 2313.78C784.194 2329.93 787.71 2335.31 796.502 2335.31C807.052 2335.31 819.36 2329.93 819.36 2308.4C819.36 2295.85 814.085 2286.88 805.293 2283.29C796.502 2279.71 789.469 2279.71 785.952 2279.71V2313.78H784.194Z" fill="black"/>
<path d="M898.479 2288.67C898.479 2292.26 898.479 2326.34 898.479 2333.51H907.27C914.304 2333.51 921.337 2333.51 930.128 2333.51C938.92 2333.51 949.469 2313.78 951.227 2306.61C951.227 2304.82 952.986 2304.82 952.986 2304.82L956.502 2306.61C956.502 2306.61 956.502 2306.61 956.502 2308.4C956.502 2310.2 949.469 2337.1 949.469 2340.69C945.953 2340.69 898.479 2340.69 884.413 2340.69C868.588 2340.69 863.313 2340.69 861.555 2340.69C859.797 2340.69 859.797 2340.69 859.797 2338.89V2335.31C859.797 2335.31 859.797 2333.51 861.555 2333.51H866.83C872.105 2333.51 873.863 2331.72 873.863 2329.93C873.863 2326.34 873.863 2286.88 873.863 2276.12V2267.15C873.863 2256.39 873.863 2240.25 873.863 2236.66C873.863 2233.07 872.105 2231.28 868.588 2231.28H863.313C861.555 2231.28 861.555 2231.28 861.555 2229.48V2225.9C861.555 2225.9 861.555 2224.1 863.313 2224.1C865.072 2224.1 870.347 2224.1 886.171 2224.1C905.512 2224.1 910.787 2224.1 912.545 2224.1C914.304 2224.1 914.304 2224.1 914.304 2225.9V2229.48C914.304 2229.48 914.304 2231.28 912.545 2231.28H905.512C900.237 2231.28 900.237 2233.07 900.237 2236.66C900.237 2238.45 900.237 2263.56 900.237 2274.32V2288.67H898.479Z" fill="black"/>
<path d="M982.879 2272.53C982.879 2268.94 982.879 2238.45 982.879 2236.66C982.879 2233.07 981.12 2231.28 977.604 2231.28H970.571C970.571 2231.28 968.812 2231.28 968.812 2229.48V2224.1C968.812 2224.1 968.813 2222.31 970.571 2222.31C972.329 2222.31 981.121 2222.31 996.945 2222.31C1012.77 2222.31 1018.04 2222.31 1019.8 2222.31C1019.8 2222.31 1021.56 2222.31 1021.56 2224.1V2227.69C1021.56 2227.69 1021.56 2229.48 1019.8 2229.48H1014.53C1011.01 2229.48 1007.49 2231.28 1007.49 2233.07C1007.49 2234.86 1007.49 2270.74 1007.49 2272.53V2285.09C1007.49 2286.88 1007.49 2324.55 1007.49 2326.34C1007.49 2331.72 1009.25 2331.72 1012.77 2331.72H1019.8C1019.8 2331.72 1021.56 2331.72 1021.56 2333.51V2338.89C1021.56 2338.89 1021.56 2340.69 1019.8 2340.69C1018.04 2340.69 1011.01 2340.69 996.945 2340.69C979.362 2340.69 974.087 2340.69 972.329 2340.69C972.329 2340.69 970.571 2340.69 970.571 2338.89V2335.31C970.571 2335.31 970.571 2333.51 972.329 2333.51H977.604C981.12 2333.51 984.637 2333.51 984.637 2329.93C984.637 2328.13 984.637 2292.26 984.637 2283.29V2272.53H982.879Z" fill="black"/>
<path d="M1148.16 2240.24C1158.71 2251.01 1163.98 2267.15 1163.98 2281.5C1163.98 2299.43 1156.95 2315.58 1148.16 2324.55C1139.37 2333.51 1130.57 2338.89 1120.03 2342.48C1134.09 2347.86 1146.4 2351.45 1156.95 2355.04C1190.36 2364.01 1199.15 2362.21 1204.42 2362.21C1209.7 2362.21 1213.21 2360.42 1216.73 2356.83H1218.49L1220.25 2358.62V2360.42C1216.73 2365.8 1204.42 2380.15 1195.63 2380.15C1186.84 2380.15 1178.05 2380.15 1155.19 2371.18C1137.61 2364.01 1120.03 2356.83 1093.65 2344.28C1090.13 2342.48 1072.55 2340.69 1056.73 2324.55C1047.94 2315.58 1040.9 2301.23 1040.9 2283.29C1040.9 2265.36 1047.94 2249.21 1060.24 2238.45C1072.55 2227.69 1090.13 2222.31 1102.44 2222.31C1123.54 2222.31 1137.61 2229.48 1148.16 2240.24ZM1137.61 2285.09C1137.61 2265.36 1130.57 2251.01 1123.54 2242.04C1116.51 2233.07 1107.72 2229.48 1098.93 2229.48C1090.13 2229.48 1083.1 2234.86 1079.58 2238.45C1069.03 2249.21 1065.52 2263.56 1065.52 2276.12C1065.52 2299.43 1074.31 2315.58 1081.34 2322.75C1086.62 2329.93 1097.17 2333.51 1102.44 2333.51C1130.57 2335.31 1137.61 2299.43 1137.61 2285.09Z" fill="black"/>
<path d="M1190.36 2238.45C1190.36 2233.07 1188.6 2229.48 1185.08 2229.48H1178.05C1176.29 2229.48 1176.29 2229.48 1176.29 2227.69V2224.1C1176.29 2222.31 1176.29 2222.31 1178.05 2222.31C1179.81 2222.31 1186.84 2222.31 1204.42 2222.31C1218.49 2222.31 1225.52 2222.31 1227.28 2222.31C1229.04 2222.31 1229.04 2222.31 1229.04 2224.1V2227.69C1229.04 2227.69 1229.04 2229.48 1227.28 2229.48H1222C1216.73 2229.48 1213.21 2233.07 1213.21 2236.66C1213.21 2238.45 1213.21 2249.21 1213.21 2258.18V2268.94C1213.21 2277.91 1213.21 2297.64 1213.21 2303.02C1213.21 2310.2 1214.97 2317.37 1218.49 2322.75C1223.76 2329.93 1230.8 2331.72 1237.83 2331.72C1243.1 2331.72 1251.9 2328.13 1257.17 2324.55C1264.2 2319.16 1267.72 2310.2 1267.72 2297.64V2272.53C1267.72 2258.18 1265.96 2240.24 1265.96 2236.66C1265.96 2233.07 1262.44 2229.48 1260.69 2229.48H1255.41C1253.65 2229.48 1253.65 2229.48 1253.65 2227.69V2224.1C1253.65 2224.1 1253.65 2222.31 1255.41 2222.31C1257.17 2222.31 1264.2 2222.31 1274.75 2222.31C1283.54 2222.31 1288.82 2222.31 1290.58 2222.31C1292.34 2222.31 1292.34 2222.31 1292.34 2224.1V2227.69C1292.34 2229.48 1292.34 2229.48 1290.58 2229.48H1285.3C1280.03 2229.48 1278.27 2234.86 1278.27 2234.86C1278.27 2236.66 1278.27 2259.97 1278.27 2261.77C1278.27 2263.56 1278.27 2292.26 1278.27 2299.43C1276.51 2311.99 1272.99 2322.75 1264.2 2329.93C1257.17 2337.1 1246.62 2340.69 1236.07 2340.69C1229.04 2340.69 1218.49 2338.89 1211.45 2337.1C1204.42 2333.51 1197.39 2326.34 1192.11 2315.58C1188.6 2308.4 1188.6 2297.64 1188.6 2276.12V2238.45H1190.36Z" fill="black"/>
<path d="M1341.57 2277.91C1348.6 2277.91 1355.64 2277.91 1357.39 2276.12C1360.91 2276.12 1362.67 2274.32 1364.43 2270.74C1366.18 2268.94 1367.94 2263.56 1367.94 2259.97C1367.94 2258.18 1367.94 2258.18 1369.7 2258.18H1373.22C1373.22 2258.18 1374.98 2258.18 1374.98 2259.97C1374.98 2263.56 1374.98 2270.74 1374.98 2276.12C1374.98 2283.29 1374.98 2290.47 1376.73 2294.05C1376.73 2295.85 1376.73 2295.85 1374.98 2295.85H1371.46C1371.46 2295.85 1369.7 2295.85 1369.7 2294.05C1369.7 2292.26 1367.94 2286.88 1366.18 2285.09C1364.43 2281.5 1360.91 2279.7 1357.39 2279.7C1353.88 2279.7 1348.6 2277.91 1341.57 2277.91V2286.88C1341.57 2295.85 1341.57 2311.99 1341.57 2313.78C1341.57 2322.75 1343.33 2324.55 1345.09 2326.34C1346.84 2328.13 1350.36 2328.13 1359.15 2328.13C1362.67 2328.13 1367.94 2328.13 1371.46 2328.13C1374.98 2328.13 1380.25 2326.34 1383.77 2322.75C1387.28 2319.16 1396.08 2308.4 1399.59 2304.82H1401.35L1404.87 2306.61C1404.87 2306.61 1404.87 2306.61 1404.87 2308.4L1397.83 2333.51C1397.83 2335.31 1396.08 2335.31 1394.32 2335.31C1394.32 2335.31 1390.8 2335.31 1380.25 2335.31C1369.7 2335.31 1352.12 2335.31 1325.74 2335.31C1320.47 2335.31 1315.19 2335.31 1311.68 2335.31C1308.16 2335.31 1306.4 2335.31 1304.64 2335.31C1302.89 2335.31 1302.89 2335.31 1302.89 2333.51V2329.93C1302.89 2328.13 1302.89 2328.13 1304.64 2328.13H1309.92C1316.95 2328.13 1318.71 2326.34 1318.71 2320.96V2267.15C1318.71 2252.8 1318.71 2233.07 1318.71 2231.28C1318.71 2225.9 1316.95 2224.1 1311.68 2224.1H1304.64C1304.64 2224.1 1304.64 2224.1 1304.64 2222.31V2218.72C1304.64 2218.72 1304.65 2216.93 1306.4 2216.93C1309.92 2216.93 1315.19 2216.93 1329.26 2216.93H1385.53C1387.28 2216.93 1390.8 2216.93 1392.56 2216.93H1394.32C1394.32 2218.72 1399.59 2242.04 1401.35 2243.83V2245.63L1399.59 2247.42H1397.83C1397.83 2245.63 1382.01 2231.28 1378.49 2229.48C1374.98 2227.69 1371.46 2225.9 1366.18 2225.9H1345.09L1341.57 2277.91Z" fill="black"/>
<path d="M1505.09 2233.07H1499.82C1494.54 2233.07 1485.75 2233.07 1478.72 2234.86C1475.2 2236.66 1468.17 2247.42 1464.65 2252.8L1462.89 2254.59L1459.38 2252.8V2251.01C1461.13 2243.83 1466.41 2222.31 1466.41 2218.72C1466.41 2216.93 1468.17 2215.13 1468.17 2215.13C1469.92 2215.13 1469.92 2215.13 1471.68 2216.93C1473.44 2218.72 1476.96 2220.51 1482.23 2220.51C1491.02 2220.51 1498.06 2222.31 1513.88 2222.31H1522.67C1540.26 2222.31 1547.29 2222.31 1554.32 2220.51C1557.84 2220.51 1564.87 2218.72 1566.63 2216.93C1568.39 2215.13 1568.39 2215.13 1570.15 2215.13C1571.91 2215.13 1571.91 2215.13 1571.91 2216.93C1571.91 2220.51 1575.42 2240.24 1577.18 2249.21V2251.01L1573.66 2252.8C1573.66 2252.8 1571.91 2252.8 1571.91 2251.01C1568.39 2245.63 1561.36 2236.66 1557.84 2233.07C1554.32 2231.28 1540.26 2229.48 1536.74 2229.48H1529.71V2274.32C1529.71 2276.12 1529.71 2322.75 1529.71 2324.55C1529.71 2328.13 1531.46 2331.72 1534.98 2331.72H1542.01C1543.77 2331.72 1543.77 2331.72 1543.77 2333.51V2337.1C1543.77 2337.1 1543.77 2338.89 1542.01 2338.89C1540.26 2338.89 1534.98 2338.89 1517.4 2338.89C1499.82 2338.89 1494.54 2338.89 1491.02 2338.89C1489.27 2338.89 1489.27 2338.89 1489.27 2337.1V2333.51C1489.27 2331.72 1489.27 2331.72 1491.02 2331.72H1499.82C1503.33 2331.72 1505.09 2329.93 1505.09 2326.34C1505.09 2322.75 1505.09 2272.53 1505.09 2268.94V2233.07Z" fill="black"/>
<path d="M1607.06 2331.72C1596.52 2324.55 1584.21 2306.61 1584.21 2283.29C1584.21 2272.53 1585.97 2258.18 1598.27 2242.04C1612.34 2224.1 1629.92 2220.52 1643.99 2220.52C1658.05 2220.52 1670.36 2222.31 1682.67 2233.07C1694.98 2242.04 1703.77 2259.98 1703.77 2281.5C1703.77 2294.05 1700.25 2306.61 1691.46 2317.37C1680.91 2329.93 1666.85 2340.69 1642.23 2340.69C1633.44 2342.48 1619.37 2340.69 1607.06 2331.72ZM1680.91 2285.09C1680.91 2249.21 1658.05 2229.48 1643.99 2229.48C1640.47 2229.48 1633.44 2229.48 1622.89 2238.45C1614.1 2247.42 1608.82 2265.36 1608.82 2277.91C1608.82 2319.17 1631.68 2335.31 1645.75 2335.31C1675.64 2335.31 1680.91 2299.44 1680.91 2285.09Z" fill="black"/>
<path d="M1833.89 2324.55C1833.89 2326.34 1833.89 2328.13 1833.89 2329.93C1833.89 2331.72 1832.13 2331.72 1832.13 2331.72C1819.82 2338.89 1805.76 2342.48 1784.66 2342.48C1768.83 2342.48 1749.49 2337.1 1738.94 2324.55C1728.39 2313.78 1724.88 2299.43 1724.88 2279.7C1724.88 2265.36 1731.91 2249.21 1744.22 2238.45C1756.52 2227.69 1770.59 2222.31 1789.93 2222.31C1805.76 2222.31 1818.06 2227.69 1823.34 2229.48C1825.1 2231.28 1826.86 2229.48 1826.86 2229.48L1828.61 2227.69C1828.61 2225.9 1830.37 2225.9 1830.37 2225.9C1832.13 2225.9 1832.13 2227.69 1832.13 2229.48L1833.89 2263.56C1833.89 2265.36 1833.89 2267.15 1833.89 2267.15L1828.61 2268.94C1826.86 2268.94 1826.86 2268.94 1826.86 2267.15C1825.1 2259.97 1819.82 2249.21 1812.79 2242.04C1805.76 2236.66 1798.72 2231.28 1788.17 2231.28C1779.38 2231.28 1772.35 2234.86 1763.56 2243.83C1756.52 2252.8 1751.25 2267.15 1751.25 2281.5C1751.25 2301.23 1756.52 2317.37 1765.32 2326.34C1772.35 2333.51 1779.38 2337.1 1789.93 2337.1C1798.72 2337.1 1802.24 2337.1 1807.51 2333.51C1811.03 2331.72 1811.03 2326.34 1811.03 2317.37V2304.82C1811.03 2299.43 1809.27 2297.64 1805.76 2297.64H1798.72C1796.96 2297.64 1796.96 2297.64 1796.96 2295.85V2292.26C1796.96 2292.26 1796.96 2290.47 1798.72 2290.47C1800.48 2290.47 1807.51 2290.47 1821.58 2290.47C1835.65 2290.47 1842.68 2290.47 1842.68 2290.47C1844.44 2290.47 1844.44 2290.47 1844.44 2292.26V2295.85C1844.44 2297.64 1844.44 2297.64 1842.68 2297.64H1837.41C1833.89 2297.64 1832.13 2299.43 1832.13 2303.02V2324.55H1833.89Z" fill="black"/>
<path d="M1884.88 2331.72C1874.33 2324.55 1862.02 2306.61 1862.02 2283.29C1862.02 2272.53 1863.78 2258.18 1876.09 2242.04C1890.15 2224.1 1907.73 2220.52 1921.8 2220.52C1935.87 2220.52 1948.18 2222.31 1960.48 2233.07C1972.79 2242.04 1981.58 2259.98 1981.58 2281.5C1981.58 2294.05 1978.07 2306.61 1969.27 2317.37C1958.72 2329.93 1944.66 2340.69 1920.04 2340.69C1911.25 2342.48 1897.19 2340.69 1884.88 2331.72ZM1958.73 2285.09C1958.73 2249.21 1935.87 2229.48 1921.8 2229.48C1918.28 2229.48 1911.25 2229.48 1900.7 2238.45C1891.91 2247.42 1886.64 2265.36 1886.64 2277.91C1886.64 2319.17 1909.49 2335.31 1923.56 2335.31C1953.45 2335.31 1958.73 2299.44 1958.73 2285.09Z" fill="black"/>
<path d="M2036.09 2288.67C2036.09 2292.26 2036.09 2326.34 2036.09 2333.51H2044.88C2051.91 2333.51 2058.95 2333.51 2067.74 2333.51C2076.53 2333.51 2087.08 2313.78 2088.84 2306.61C2088.84 2304.82 2090.6 2304.82 2090.6 2304.82L2094.11 2306.61C2094.11 2306.61 2094.11 2306.61 2094.11 2308.4C2094.11 2310.2 2087.08 2337.1 2087.08 2340.69C2083.56 2340.69 2036.09 2340.69 2022.02 2340.69C2006.2 2340.69 2000.92 2340.69 1999.16 2340.69C1997.41 2340.69 1997.41 2340.69 1997.41 2338.89V2335.31C1997.41 2335.31 1997.41 2333.51 1999.16 2333.51H2004.44C2009.71 2333.51 2011.47 2331.72 2011.47 2329.93C2011.47 2326.34 2011.47 2286.88 2011.47 2276.12V2267.15C2011.47 2256.39 2011.47 2240.25 2011.47 2236.66C2011.47 2233.07 2009.71 2231.28 2006.2 2231.28H2000.92C1999.16 2231.28 1999.16 2231.28 1999.16 2229.48V2225.9C1999.16 2225.9 1999.16 2224.1 2000.92 2224.1C2002.68 2224.1 2007.96 2224.1 2023.78 2224.1C2043.12 2224.1 2048.4 2224.1 2050.15 2224.1C2051.91 2224.1 2051.91 2224.1 2051.91 2225.9V2229.48C2051.91 2229.48 2051.91 2231.28 2050.15 2231.28H2043.12C2037.85 2231.28 2037.85 2233.07 2037.85 2236.66C2037.85 2238.45 2037.85 2263.56 2037.85 2274.32V2288.67H2036.09Z" fill="black"/>
<path d="M2132.8 2295.85C2131.04 2299.43 2124 2320.96 2124 2326.34C2124 2329.93 2125.76 2333.51 2131.04 2333.51H2136.31C2138.07 2333.51 2138.07 2333.51 2138.07 2335.31V2338.89C2138.07 2340.69 2138.07 2340.69 2136.31 2340.69C2134.55 2340.69 2127.52 2340.69 2115.21 2340.69C2102.9 2340.69 2099.39 2340.69 2097.63 2340.69C2095.87 2340.69 2095.87 2338.89 2095.87 2338.89V2335.31C2095.87 2333.51 2095.87 2333.51 2097.63 2333.51H2101.15C2104.66 2333.51 2108.18 2331.72 2111.7 2326.34C2113.45 2322.75 2125.76 2294.05 2131.04 2279.7C2132.8 2276.12 2145.1 2242.04 2146.86 2236.66C2146.86 2234.86 2148.62 2233.07 2146.86 2231.28L2145.1 2229.48C2145.1 2229.48 2145.1 2227.69 2146.86 2227.69C2152.14 2225.9 2162.69 2222.31 2164.44 2218.72L2166.2 2216.93C2167.96 2216.93 2167.96 2218.72 2167.96 2220.52C2171.48 2231.28 2183.79 2267.15 2187.3 2277.91C2190.82 2290.47 2201.37 2320.96 2203.13 2324.55C2206.64 2329.93 2210.16 2331.72 2211.92 2331.72H2217.19C2218.95 2331.72 2218.95 2331.72 2218.95 2333.51V2337.1C2218.95 2338.89 2218.95 2338.89 2217.19 2338.89C2213.68 2338.89 2210.16 2338.89 2190.82 2338.89C2176.75 2338.89 2171.48 2338.89 2167.96 2338.89C2166.2 2338.89 2166.2 2337.1 2166.2 2337.1V2333.51C2166.2 2333.51 2166.2 2331.72 2167.96 2331.72H2173.24C2176.75 2331.72 2178.51 2329.93 2178.51 2326.34C2176.75 2320.96 2171.48 2299.43 2169.72 2294.05H2132.8V2295.85ZM2166.2 2288.67C2164.44 2283.29 2155.65 2249.21 2153.89 2245.63C2153.89 2243.83 2152.14 2242.04 2152.14 2242.04C2150.38 2242.04 2150.38 2242.04 2150.38 2243.83C2150.38 2245.63 2136.31 2285.09 2134.55 2288.67H2166.2Z" fill="black"/>
<path d="M2241.81 2272.53C2241.81 2268.94 2241.81 2238.45 2241.81 2236.66C2241.81 2233.07 2240.05 2231.28 2236.53 2231.28H2229.5C2229.5 2231.28 2227.74 2231.28 2227.74 2229.48V2224.1C2227.74 2224.1 2227.74 2222.31 2229.5 2222.31C2231.26 2222.31 2240.05 2222.31 2255.87 2222.31C2271.7 2222.31 2276.97 2222.31 2278.73 2222.31C2278.73 2222.31 2280.49 2222.31 2280.49 2224.1V2227.69C2280.49 2227.69 2280.49 2229.48 2278.73 2229.48H2273.46C2269.94 2229.48 2266.42 2231.28 2266.42 2233.07C2266.42 2234.86 2266.42 2270.74 2266.42 2272.53V2285.09C2266.42 2286.88 2266.42 2324.55 2266.42 2326.34C2266.42 2331.72 2268.18 2331.72 2271.7 2331.72H2278.73C2278.73 2331.72 2280.49 2331.72 2280.49 2333.51V2338.89C2280.49 2338.89 2280.49 2340.69 2278.73 2340.69C2276.97 2340.69 2269.94 2340.69 2255.87 2340.69C2238.29 2340.69 2233.02 2340.69 2231.26 2340.69C2231.26 2340.69 2229.5 2340.69 2229.5 2338.89V2335.31C2229.5 2335.31 2229.5 2333.51 2231.26 2333.51H2236.53C2240.05 2333.51 2243.57 2333.51 2243.57 2329.93C2243.57 2328.13 2243.57 2292.26 2243.57 2283.29V2272.53H2241.81Z" fill="black"/>
<path d="M2308.62 2304.82C2310.38 2311.99 2312.14 2317.37 2315.65 2324.55C2320.93 2331.72 2327.96 2335.31 2334.99 2335.31C2342.03 2335.31 2354.34 2329.93 2354.34 2317.37C2354.34 2303.02 2352.58 2299.44 2331.48 2292.26C2326.2 2290.47 2315.65 2285.09 2308.62 2277.91C2303.35 2272.53 2299.83 2263.56 2299.83 2254.59C2299.83 2243.83 2301.59 2238.45 2312.14 2231.28C2319.17 2225.9 2326.2 2224.1 2334.99 2224.1C2347.3 2224.1 2352.58 2225.9 2356.09 2227.69C2357.85 2227.69 2359.61 2227.69 2359.61 2227.69L2361.37 2225.9L2363.13 2224.1C2364.88 2224.1 2364.89 2225.9 2364.89 2227.69L2366.64 2256.39C2366.64 2256.39 2366.64 2256.39 2366.64 2258.18L2363.13 2259.98C2363.13 2259.98 2361.37 2259.98 2361.37 2258.18C2359.61 2252.8 2356.09 2247.42 2350.82 2242.04C2347.3 2236.66 2342.03 2234.86 2334.99 2234.86C2322.69 2234.86 2317.41 2245.63 2317.41 2249.21C2317.41 2254.59 2317.41 2259.98 2320.93 2263.56C2324.44 2267.15 2334.99 2272.53 2342.03 2274.32C2349.06 2276.12 2356.09 2281.5 2363.13 2286.88C2370.16 2292.26 2371.92 2299.43 2371.92 2311.99C2371.92 2331.72 2357.85 2347.86 2336.75 2347.86C2322.69 2347.86 2315.65 2346.07 2308.62 2340.69C2306.86 2338.89 2305.1 2338.89 2305.1 2338.89C2303.35 2338.89 2303.35 2340.69 2303.35 2342.48C2301.59 2344.28 2301.59 2344.28 2299.83 2344.28C2298.07 2344.28 2298.07 2344.28 2298.07 2342.48L2299.83 2311.99C2299.83 2310.2 2299.83 2310.2 2301.59 2310.2L2308.62 2304.82Z" fill="black"/>
<path d="M2431.7 2277.91C2438.73 2277.91 2445.77 2277.91 2447.53 2276.12C2451.04 2276.12 2452.8 2274.32 2454.56 2270.74C2456.32 2268.94 2458.08 2263.56 2458.08 2259.97C2458.08 2258.18 2458.08 2258.18 2459.83 2258.18H2463.35C2463.35 2258.18 2465.11 2258.18 2465.11 2259.97C2465.11 2263.56 2465.11 2270.74 2465.11 2276.12C2465.11 2283.29 2465.11 2290.47 2466.87 2294.05C2466.87 2295.85 2466.87 2295.85 2465.11 2295.85H2461.59C2461.59 2295.85 2459.83 2295.85 2459.83 2294.05C2459.83 2292.26 2458.08 2286.88 2456.32 2285.09C2454.56 2281.5 2451.04 2279.7 2447.53 2279.7C2444.01 2279.7 2438.73 2277.91 2431.7 2277.91V2286.88C2431.7 2295.85 2431.7 2311.99 2431.7 2313.78C2431.7 2322.75 2433.46 2324.55 2435.22 2326.34C2436.98 2328.13 2440.49 2328.13 2449.28 2328.13C2452.8 2328.13 2458.08 2328.13 2461.59 2328.13C2465.11 2328.13 2470.38 2326.34 2473.9 2322.75C2477.42 2319.16 2486.21 2308.4 2489.73 2304.82H2491.48L2495 2306.61C2495 2306.61 2495 2306.61 2495 2308.4L2487.97 2333.51C2487.97 2335.31 2486.21 2335.31 2484.45 2335.31C2484.45 2335.31 2480.93 2335.31 2470.38 2335.31C2459.83 2335.31 2442.25 2335.31 2415.88 2335.31C2410.6 2335.31 2405.33 2335.31 2401.81 2335.31C2398.29 2335.31 2396.54 2335.31 2394.78 2335.31C2393.02 2335.31 2393.02 2335.31 2393.02 2333.51V2329.93C2393.02 2328.13 2393.02 2328.13 2394.78 2328.13H2400.05C2407.09 2328.13 2408.84 2326.34 2408.84 2320.96V2267.15C2408.84 2252.8 2408.84 2233.07 2408.84 2231.28C2408.84 2225.9 2407.09 2224.1 2401.81 2224.1H2394.78C2394.78 2224.1 2394.78 2224.1 2394.78 2222.31V2218.72C2394.78 2218.72 2394.78 2216.93 2396.54 2216.93C2400.05 2216.93 2405.33 2216.93 2419.39 2216.93H2475.66C2477.42 2216.93 2480.93 2216.93 2482.69 2216.93H2484.45C2484.45 2218.72 2489.72 2242.04 2491.48 2243.83V2245.63L2489.73 2247.42H2487.97C2487.97 2245.63 2472.14 2231.28 2468.63 2229.48C2465.11 2227.69 2461.59 2225.9 2456.32 2225.9H2435.22L2431.7 2277.91Z" fill="black"/>
<path d="M1965.76 1158.69C1965.76 1635.79 1709.05 2023.22 1392.56 2023.22C1076.07 2023.22 819.359 1635.79 819.359 1158.69C819.359 683.373 1076.07 294.155 1392.56 294.155C1707.29 295.949 1965.76 683.373 1965.76 1158.69Z" fill="white"/>
<path d="M1802.24 634.945C1782.9 609.834 1763.56 590.104 1742.46 570.374C1682.68 512.978 1615.86 469.931 1545.53 444.82L1550.8 417.916H1549.05C1529.7 410.741 1508.61 405.36 1489.26 401.773C1457.61 394.598 1424.21 391.011 1392.56 391.011C1360.91 391.011 1327.5 394.598 1295.85 401.773C1276.51 405.36 1255.41 412.535 1236.07 417.916H1234.31L1239.59 444.82C1169.26 469.931 1102.44 511.184 1042.66 570.374C1023.32 590.104 1003.98 611.628 984.637 633.151L982.879 634.945L1053.21 721.039L1054.97 722.833L1128.82 712.071C1130.57 712.071 1130.57 710.277 1130.57 708.484C1130.57 708.484 1130.57 708.484 1130.57 706.69L1104.2 665.437C1153.43 618.802 1209.7 584.723 1267.72 564.993C1283.55 559.613 1299.37 556.025 1315.19 552.438H1316.95L1311.68 514.772C1338.05 509.391 1364.43 505.804 1390.8 505.804C1417.17 505.804 1443.55 509.391 1469.92 514.772L1464.65 552.438H1466.41C1482.23 556.025 1498.06 559.613 1513.88 564.993C1571.9 584.723 1626.41 618.802 1677.4 665.437L1652.78 708.484C1652.78 708.484 1652.78 708.484 1652.78 710.277C1652.78 712.071 1652.78 713.865 1654.54 713.865L1728.39 724.627C1730.15 724.627 1730.15 724.627 1730.15 722.833L1802.24 634.945ZM1687.95 676.199C1689.71 677.992 1691.47 679.786 1693.22 681.579C1694.98 683.373 1698.5 686.96 1700.26 688.754C1702.02 690.548 1703.77 692.341 1705.53 694.135C1709.05 697.722 1710.81 699.516 1712.57 703.103C1714.32 704.897 1714.32 706.69 1716.08 706.69C1719.6 710.278 1723.12 713.865 1724.87 717.452L1656.3 708.484L1679.16 670.818C1684.43 670.818 1686.19 674.405 1687.95 676.199ZM1070.79 701.309C1072.55 697.722 1076.07 695.928 1077.83 692.341C1079.58 690.548 1081.34 688.754 1083.1 686.96C1084.86 685.167 1088.38 681.579 1090.13 679.786C1091.89 677.992 1093.65 676.198 1095.41 674.405C1097.17 672.611 1098.93 670.818 1100.68 669.024L1123.54 706.69L1056.73 717.452C1060.24 713.865 1063.76 710.278 1065.52 706.69C1067.28 704.897 1069.03 703.103 1070.79 701.309ZM1265.96 561.406C1207.94 581.136 1151.67 615.215 1102.44 661.849L1100.68 663.643C1097.17 667.23 1091.89 672.611 1088.38 676.199C1086.62 677.992 1084.86 679.786 1084.86 679.786C1081.34 683.373 1079.58 685.167 1076.07 688.754C1074.31 690.548 1072.55 692.341 1070.79 694.135C1069.03 695.928 1065.52 699.516 1063.76 701.309C1062 703.103 1060.24 704.897 1058.49 706.69C1056.73 708.484 1054.97 710.278 1053.21 712.071L989.912 634.945C1007.49 613.421 1026.84 591.898 1046.18 573.962C1105.96 516.565 1171.02 475.312 1241.35 450.201L1258.93 529.121C1258.93 530.914 1258.93 530.914 1260.69 530.914L1308.16 548.851C1292.34 552.438 1280.03 556.025 1265.96 561.406ZM1308.16 516.565L1311.68 547.057L1262.45 529.121C1278.27 523.74 1292.34 518.359 1308.16 516.565ZM1309.92 509.391C1294.09 512.978 1276.51 516.565 1260.69 521.946L1237.83 419.709C1257.17 412.535 1276.51 407.154 1295.85 403.567C1327.5 396.392 1359.15 392.805 1392.56 392.805C1424.21 392.805 1457.61 396.392 1489.26 403.567C1508.61 407.154 1527.95 412.535 1547.29 419.709L1524.43 521.946C1508.61 516.565 1492.78 512.978 1475.2 509.391C1448.82 504.01 1420.69 500.423 1392.56 500.423C1364.43 502.216 1336.29 504.01 1309.92 509.391ZM1520.91 529.121L1471.68 547.057L1475.2 516.565C1491.02 518.359 1506.85 523.74 1520.91 529.121ZM1517.4 561.406C1505.09 557.819 1491.02 552.438 1478.71 550.644L1526.19 532.708C1527.95 532.708 1527.95 530.914 1527.95 530.914L1545.53 451.995C1615.86 477.106 1680.92 518.359 1740.7 575.755C1760.04 593.691 1779.38 615.215 1796.96 636.739L1733.67 713.865C1731.91 712.071 1730.15 710.277 1728.39 708.484C1726.63 706.69 1724.87 704.897 1723.12 703.103C1721.36 701.309 1717.84 697.722 1716.08 695.928C1714.32 694.135 1712.57 692.341 1710.81 690.548C1709.05 686.96 1705.53 685.167 1702.02 681.579C1700.26 679.786 1698.5 677.992 1698.5 677.992C1694.98 674.405 1689.71 669.024 1686.19 665.437L1684.43 663.643C1631.68 615.215 1577.18 581.136 1517.4 561.406Z" fill="black"/>
<path d="M1392.56 252.902C1054.97 252.902 778.922 658.262 778.922 1158.69C778.922 1659.11 1053.21 2064.47 1392.56 2064.47C1731.91 2064.47 2006.2 1659.11 2006.2 1158.69C2006.2 658.262 1730.15 252.902 1392.56 252.902ZM1392.56 2023.22C1076.07 2023.22 819.362 1635.79 819.362 1158.69C819.362 683.373 1076.07 294.155 1392.56 294.155C1709.05 294.155 1965.76 681.58 1965.76 1158.69C1965.76 1635.79 1707.29 2023.22 1392.56 2023.22Z" fill="#156C52"/>
<path d="M1322.23 1040.31L1262.45 699.516L1253.66 685.167L1260.69 665.437L1273 683.373L1267.72 697.722L1322.23 1040.31Z" fill="#FFCE15"/>
<path d="M1531.46 685.167L1520.91 697.722L1461.13 1045.69L1515.64 697.722L1510.36 683.373L1524.43 665.437L1531.46 685.167Z" fill="#FFCE15"/>
<path d="M1538.5 1312.94C1536.74 1312.94 1520.92 1305.76 1501.58 1321.91C1480.48 1338.05 1492.78 1372.13 1492.78 1372.13C1492.78 1372.13 1475.2 1355.98 1452.34 1363.16C1429.49 1368.54 1427.73 1406.21 1427.73 1406.21C1427.73 1406.21 1410.14 1379.3 1390.8 1379.3C1371.46 1379.3 1353.88 1406.21 1353.88 1406.21C1353.88 1406.21 1352.12 1370.33 1329.26 1363.16C1306.41 1355.98 1288.82 1372.13 1288.82 1372.13C1288.82 1372.13 1301.13 1338.05 1280.03 1321.91C1258.93 1305.76 1244.87 1312.94 1243.11 1312.94C1244.87 1311.14 1260.69 1289.62 1255.42 1266.3C1250.14 1241.19 1218.49 1237.6 1218.49 1237.6C1218.49 1237.6 1250.14 1226.84 1250.14 1199.94C1250.14 1174.83 1227.28 1158.69 1225.53 1156.89C1227.28 1156.89 1255.42 1164.07 1265.97 1137.16C1276.52 1112.05 1262.45 1088.73 1260.69 1086.94C1262.45 1088.73 1285.31 1104.88 1304.65 1086.94C1318.71 1072.59 1322.23 1052.86 1320.47 1043.89C1325.75 1049.27 1338.06 1061.83 1352.12 1060.04C1380.25 1058.24 1389.05 1027.75 1389.05 1027.75C1389.05 1027.75 1397.84 1058.24 1425.97 1060.04C1440.04 1060.04 1452.34 1047.48 1457.62 1042.1C1457.62 1051.07 1461.14 1072.59 1475.2 1085.15C1494.54 1104.88 1517.4 1086.94 1519.16 1085.15C1517.4 1086.94 1503.33 1110.26 1513.88 1135.37C1524.43 1160.48 1554.32 1155.1 1554.32 1155.1C1552.57 1156.89 1529.71 1173.03 1529.71 1198.14C1529.71 1223.26 1561.36 1235.81 1561.36 1235.81C1561.36 1235.81 1531.47 1239.4 1524.43 1264.51C1522.67 1291.41 1536.74 1311.14 1538.5 1312.94Z" fill="#FFCE15"/>
<path d="M1394.32 1194.56C1394.32 1169.45 1378.49 1155.1 1352.12 1155.1H1295.85V1278.86H1322.23V1235.81H1343.33L1364.42 1278.86H1394.32L1371.46 1230.43C1387.28 1223.26 1394.32 1212.49 1394.32 1194.56ZM1322.23 1180.21H1352.12C1362.67 1180.21 1367.94 1185.59 1367.94 1194.56C1367.94 1203.53 1362.67 1208.91 1352.12 1208.91H1322.23V1180.21Z" fill="black"/>
<path d="M1403.11 1153.3V1180.21H1438.27V1278.86H1464.65V1180.21H1498.05V1153.3H1403.11Z" fill="black"/>
<path d="M1044.42 618.803L1079.58 654.675L1072.55 660.056L1037.39 624.184L1030.35 631.358L1025.08 625.977L1046.18 604.454L1051.45 609.834L1044.42 618.803Z" fill="black"/>
<path d="M1107.72 627.771L1084.86 615.215L1079.59 618.802L1095.41 636.739L1090.13 642.12L1053.21 599.073L1065.52 588.311C1072.55 582.93 1079.59 581.136 1088.38 590.104C1093.65 595.485 1093.65 602.66 1091.89 608.041L1116.51 622.39L1107.72 627.771ZM1069.04 595.485L1063.76 600.866L1074.31 613.422L1079.59 608.041C1083.1 604.453 1084.86 600.866 1079.59 595.485C1076.07 591.898 1072.55 591.898 1069.04 595.485Z" fill="black"/>
<path d="M1135.85 602.66L1125.3 593.692L1114.75 600.866L1121.79 615.215L1114.75 620.596L1091.89 566.787L1098.93 561.406L1144.64 599.073L1135.85 602.66ZM1111.24 581.136C1107.72 579.343 1104.2 573.962 1102.44 572.168C1104.2 573.962 1105.96 579.343 1107.72 582.93L1111.24 591.898L1118.27 586.517L1111.24 581.136Z" fill="black"/>
<path d="M1156.95 588.311L1151.67 591.898L1107.71 552.438L1114.75 547.058L1135.85 566.787C1137.61 568.581 1142.88 573.962 1144.64 575.756C1144.64 573.962 1141.12 566.787 1139.36 564.994L1128.81 538.089L1135.85 532.708L1156.95 588.311Z" fill="black"/>
<path d="M1188.6 568.581L1178.05 557.819L1167.5 564.994L1172.78 579.343L1165.74 582.93L1148.16 525.534L1155.19 521.947L1195.63 564.994L1188.6 568.581ZM1165.74 543.47C1163.98 539.883 1158.71 536.296 1156.95 534.502C1156.95 536.296 1160.47 543.47 1160.47 547.058L1163.98 556.026L1171.02 550.645L1165.74 543.47Z" fill="black"/>
<path d="M1200.91 561.407L1174.53 509.391L1181.56 505.804L1207.94 557.819L1200.91 561.407Z" fill="black"/>
<path d="M1216.73 554.232L1193.88 502.217L1200.91 498.629L1220.25 543.47L1236.07 536.296L1239.59 543.47L1216.73 554.232Z" fill="black"/>
<path d="M1575.42 530.915L1570.14 527.328L1561.35 548.851L1554.32 545.264L1577.18 493.249L1591.24 500.423C1598.28 504.01 1603.55 511.185 1598.28 521.947C1591.24 532.708 1582.45 534.502 1575.42 530.915ZM1584.21 507.598L1578.94 504.01L1571.9 520.153L1577.18 523.74C1580.69 525.534 1585.97 523.74 1587.73 518.359C1591.24 512.978 1589.49 509.391 1584.21 507.598Z" fill="black"/>
<path d="M1600.04 570.375L1603.55 556.026L1593 550.645L1582.46 563.2L1575.42 559.613L1614.1 516.566L1621.14 520.153L1607.07 577.549L1600.04 570.375ZM1610.59 538.089C1612.35 534.502 1614.1 527.328 1614.1 525.534C1612.35 527.328 1608.83 532.709 1605.31 536.296L1600.04 543.47L1608.83 547.058L1610.59 538.089Z" fill="black"/>
<path d="M1647.51 541.676L1621.13 584.723L1614.1 581.136L1640.48 538.089L1631.68 532.708L1635.2 525.534L1659.82 541.676L1656.3 548.851L1647.51 541.676Z" fill="black"/>
<path d="M1652.79 606.247L1659.82 581.136L1654.54 577.549L1640.48 597.279L1633.45 591.898L1666.85 545.264L1679.16 554.232C1686.19 559.613 1689.71 566.787 1682.68 575.755C1677.4 582.93 1672.13 584.724 1666.85 582.93L1658.06 609.834L1652.79 606.247ZM1675.64 561.406L1668.61 556.025L1658.06 570.374L1663.34 573.962C1666.85 577.549 1672.13 577.549 1675.64 572.168C1680.92 566.787 1679.16 563.2 1675.64 561.406Z" fill="black"/>
<path d="M1665.09 615.215L1700.26 570.375L1705.53 575.755L1670.37 620.596L1665.09 615.215Z" fill="black"/>
<path d="M1679.16 627.771L1717.84 584.724L1737.18 602.66L1731.91 608.041L1717.84 595.485L1707.29 606.247L1716.08 615.215L1710.81 620.596L1702.02 611.628L1689.71 625.977L1703.78 640.326L1700.26 645.707L1679.16 627.771Z" fill="black"/>
<path d="M1283.55 491.455L1271.24 435.852L1278.27 434.059L1288.82 482.487L1306.4 478.899L1308.16 486.074L1283.55 491.455Z" fill="black"/>
<path d="M1315.2 486.074L1306.41 428.678L1313.44 426.884L1322.23 484.28L1315.2 486.074Z" fill="black"/>
<path d="M1348.6 480.693L1334.54 482.487L1329.26 425.091L1343.33 423.297C1352.12 421.503 1359.15 426.884 1360.91 437.646C1360.91 443.027 1359.15 448.408 1355.64 450.201C1360.91 451.995 1364.43 455.582 1364.43 462.757C1362.67 473.519 1357.39 478.899 1348.6 480.693ZM1341.57 430.471H1334.54L1336.29 446.614H1343.33C1346.84 446.614 1350.36 443.027 1350.36 437.646C1350.36 432.265 1346.84 430.471 1341.57 430.471ZM1345.09 453.789H1338.05L1339.81 471.725H1346.84C1352.12 471.725 1353.88 468.138 1353.88 460.963C1353.88 455.582 1348.6 453.789 1345.09 453.789Z" fill="black"/>
<path d="M1371.46 478.9L1369.7 421.503H1396.08V428.678H1376.74V444.821H1389.04V451.995H1376.74V471.725H1396.08V478.9H1371.46Z" fill="black"/>
<path d="M1427.72 478.9L1420.69 453.789H1413.66L1411.9 478.9H1404.87L1408.38 421.503L1424.21 423.297C1433 423.297 1440.03 428.678 1438.27 439.44C1438.27 448.408 1434.76 451.995 1427.72 453.789L1434.76 480.693L1427.72 478.9ZM1422.45 428.678H1415.42L1413.66 444.821H1420.69C1425.97 444.821 1429.48 443.027 1429.48 437.646C1431.24 432.265 1427.72 430.472 1422.45 428.678Z" fill="black"/>
<path d="M1464.65 434.059L1457.62 482.487L1450.58 480.693L1457.62 432.265L1445.31 430.471L1447.07 423.297L1475.2 426.884L1473.44 434.059H1464.65Z" fill="black"/>
<path d="M1473.44 486.074L1485.75 430.471L1512.12 435.852L1510.37 443.027L1492.78 439.44L1489.27 453.789L1501.57 457.376L1499.82 464.55L1487.51 460.963L1483.99 478.899L1503.33 482.487L1501.57 489.661L1473.44 486.074ZM1503.33 426.884L1496.3 425.091L1503.33 417.916L1513.88 419.71L1503.33 426.884Z" fill="black"/>
<path d="M1178.05 855.562C1192.11 850.181 1206.18 846.594 1218.49 844.8H1220.25C1227.28 843.007 1232.55 843.007 1239.59 841.213C1241.35 841.213 1241.35 841.213 1243.1 841.213C1246.62 841.213 1248.38 841.213 1251.9 841.213C1253.65 841.213 1253.65 841.213 1255.41 841.213C1257.17 841.213 1258.93 841.213 1260.69 841.213C1262.45 841.213 1264.2 841.213 1265.96 841.213C1267.72 841.213 1269.48 841.213 1273 841.213C1274.75 841.213 1276.51 841.213 1278.27 841.213C1280.03 841.213 1281.79 841.213 1281.79 841.213C1283.55 841.213 1287.06 841.213 1288.82 843.007L1269.48 722.833C1232.55 721.04 1195.63 731.801 1158.71 746.15C1163.98 782.023 1171.01 817.896 1178.05 855.562Z" fill="#D21B33"/>
<path d="M1227.28 803.546C1236.07 808.927 1244.86 814.308 1253.66 819.689C1248.38 810.721 1244.86 799.959 1239.59 790.991C1246.62 783.816 1253.65 776.642 1258.93 769.467C1250.14 769.467 1239.59 769.467 1230.8 771.261C1225.52 762.293 1220.25 751.531 1216.73 742.563C1214.97 753.325 1213.21 764.087 1213.21 774.848C1204.42 776.642 1193.87 780.229 1185.08 782.023C1193.87 785.61 1202.66 789.197 1211.46 794.578C1209.7 805.34 1207.94 814.308 1207.94 825.07C1213.21 819.689 1220.25 812.515 1227.28 803.546Z" fill="white"/>
<path d="M1163.98 782.023C1162.22 769.468 1158.71 756.912 1156.95 746.15C1077.83 776.642 1000.46 823.277 921.34 799.959C923.098 814.308 926.615 826.864 928.373 841.213C938.923 843.006 949.472 844.8 961.78 844.8C1028.6 846.594 1095.41 807.134 1163.98 782.023Z" fill="#156C52"/>
<path d="M1054.97 864.53C1093.65 850.181 1132.34 832.245 1171.02 817.896C1169.26 805.34 1165.74 792.785 1163.98 782.023C1097.17 807.134 1028.6 846.594 961.782 844.8C951.233 844.8 940.683 843.006 928.375 841.213C930.133 855.562 933.65 868.117 935.408 882.466C974.09 887.847 1014.53 878.879 1054.97 864.53Z" fill="#FFCE15"/>
<path d="M1053.21 905.783C1095.41 891.434 1135.85 869.911 1178.05 855.562C1176.29 843.006 1172.77 830.451 1171.01 817.896C1132.33 832.245 1093.65 850.181 1054.97 864.53C1014.53 878.879 975.843 887.847 935.402 880.673C937.161 893.228 940.677 907.577 942.435 920.132C979.359 927.307 1016.28 918.339 1053.21 905.783Z" fill="#156C52"/>
<path d="M982.88 961.386C977.605 961.386 974.089 961.386 970.572 961.386C963.539 961.386 956.506 961.386 949.473 961.386C951.231 973.941 954.748 988.29 956.506 1000.85C1070.79 1008.02 1186.84 891.434 1301.13 923.72L1294.1 882.466C1190.36 859.149 1086.62 950.624 982.88 961.386Z" fill="#156C52"/>
<path d="M970.57 961.386C974.087 961.386 977.604 961.386 981.12 961.386H982.878C1086.62 950.625 1190.36 859.149 1294.09 882.467L1287.06 841.213C1285.3 841.213 1281.79 841.213 1280.03 839.419C1278.27 839.419 1276.51 839.419 1276.51 839.419C1274.75 839.419 1273 839.419 1271.24 839.419C1269.48 839.419 1267.72 839.419 1264.2 839.419C1262.45 839.419 1260.69 839.419 1258.93 839.419C1257.17 839.419 1255.41 839.419 1253.65 839.419C1251.9 839.419 1251.9 839.419 1250.14 839.419C1246.62 839.419 1244.86 839.419 1241.35 839.419C1239.59 839.419 1239.59 839.419 1237.83 839.419C1230.8 839.419 1225.52 841.213 1218.49 843.007H1216.73C1202.66 846.594 1188.6 850.181 1176.29 853.768C1134.09 868.118 1093.65 889.641 1051.45 903.99C1014.53 916.546 977.604 925.514 940.68 920.133C942.438 934.482 945.955 947.037 947.713 959.593C956.504 961.386 963.537 963.18 970.57 961.386Z" fill="#FFCE15"/>
<path d="M1607.07 855.562C1593 850.181 1578.94 846.594 1566.63 844.8H1564.87C1557.84 843.007 1552.56 843.007 1545.53 841.213C1543.77 841.213 1543.77 841.213 1542.01 841.213C1538.5 841.213 1536.74 841.213 1533.22 841.213C1531.46 841.213 1531.46 841.213 1529.7 841.213C1527.95 841.213 1526.19 841.213 1524.43 841.213C1522.67 841.213 1520.91 841.213 1519.15 841.213C1517.4 841.213 1515.64 841.213 1512.12 841.213C1510.36 841.213 1508.6 841.213 1506.85 841.213C1505.09 841.213 1503.33 841.213 1503.33 841.213C1501.57 841.213 1498.06 841.213 1496.3 843.007L1515.64 722.833C1552.56 721.04 1589.49 731.801 1626.41 746.15C1621.13 782.023 1614.1 817.896 1607.07 855.562Z" fill="#D21B33"/>
<path d="M1557.84 803.546C1549.05 808.927 1540.25 814.308 1531.46 819.689C1536.74 810.721 1540.25 799.959 1545.53 790.991C1538.5 783.816 1531.46 776.642 1526.19 769.467C1534.98 769.467 1545.53 769.467 1554.32 771.261C1559.59 762.293 1564.87 751.531 1568.39 742.563C1570.14 753.325 1571.9 764.087 1571.9 774.848C1580.69 776.642 1591.24 780.229 1600.04 782.023C1591.24 785.61 1582.45 789.197 1573.66 794.578C1575.42 805.34 1577.18 814.308 1577.18 825.07C1571.9 819.689 1564.87 812.515 1557.84 803.546Z" fill="white"/>
<path d="M1621.14 782.023C1622.9 769.468 1626.41 756.912 1628.17 746.15C1707.29 776.642 1784.66 823.277 1863.78 799.959C1862.02 814.308 1858.5 826.864 1856.75 841.213C1846.2 843.006 1835.65 844.8 1823.34 844.8C1756.52 846.594 1689.71 807.134 1621.14 782.023Z" fill="#156C52"/>
<path d="M1730.15 864.53C1691.47 850.181 1652.78 832.245 1614.1 817.896C1615.86 805.34 1619.38 792.785 1621.13 782.023C1687.95 807.134 1756.52 846.594 1823.34 844.8C1833.89 844.8 1844.44 843.006 1856.74 841.213C1854.99 855.562 1851.47 868.117 1849.71 882.466C1811.03 887.847 1770.59 878.879 1730.15 864.53Z" fill="#FFCE15"/>
<path d="M1731.91 905.783C1689.71 891.434 1649.27 869.911 1607.07 855.562C1608.83 843.006 1612.35 830.451 1614.11 817.896C1652.79 832.245 1691.47 850.181 1730.15 864.53C1770.59 878.879 1809.28 887.847 1849.72 880.673C1847.96 893.228 1844.44 907.577 1842.68 920.132C1805.76 927.307 1768.84 918.339 1731.91 905.783Z" fill="#156C52"/>
<path d="M1802.24 961.386C1807.52 961.386 1811.03 961.386 1814.55 961.386C1821.58 961.386 1828.62 961.386 1835.65 961.386C1833.89 973.941 1830.37 988.29 1828.62 1000.85C1714.33 1008.02 1598.28 891.434 1483.99 923.72L1491.03 882.466C1594.76 859.149 1698.5 950.624 1802.24 961.386Z" fill="#156C52"/>
<path d="M1814.55 961.386C1811.03 961.386 1807.51 961.386 1804 961.386H1802.24C1698.5 950.625 1594.76 859.149 1491.02 882.467L1498.06 841.213C1499.81 841.213 1503.33 841.213 1505.09 839.419C1506.85 839.419 1508.61 839.419 1508.61 839.419C1510.36 839.419 1512.12 839.419 1513.88 839.419C1515.64 839.419 1517.4 839.419 1520.91 839.419C1522.67 839.419 1524.43 839.419 1526.19 839.419C1527.95 839.419 1529.71 839.419 1531.46 839.419C1533.22 839.419 1533.22 839.419 1534.98 839.419C1538.5 839.419 1540.26 839.419 1543.77 839.419C1545.53 839.419 1545.53 839.419 1547.29 839.419C1554.32 839.419 1559.6 841.213 1566.63 843.007H1568.39C1582.45 846.594 1596.52 850.181 1608.83 853.768C1651.03 868.118 1691.47 889.641 1733.67 903.99C1770.59 916.546 1807.51 925.514 1844.44 920.133C1842.68 934.482 1839.16 947.037 1837.4 959.593C1828.61 961.386 1821.58 963.18 1814.55 961.386Z" fill="#FFCE15"/>
<path d="M1371.46 1836.68C1367.94 1829.5 1369.7 1829.5 1369.7 1822.33C1369.7 1822.33 1367.94 1811.57 1369.7 1807.98C1373.22 1800.81 1366.18 1790.04 1360.91 1786.46C1360.91 1786.46 1341.57 1773.9 1332.78 1768.52C1322.23 1763.14 1315.19 1755.96 1315.19 1748.79C1315.19 1741.62 1322.23 1732.65 1322.23 1721.89C1322.23 1711.12 1316.95 1707.54 1318.71 1702.16C1318.71 1696.77 1327.5 1686.01 1332.78 1680.63C1338.05 1675.25 1339.81 1653.73 1327.5 1632.2C1322.23 1625.03 1295.85 1594.54 1295.85 1594.54C1295.85 1594.54 1273 1564.05 1267.72 1553.28C1262.45 1542.52 1260.69 1535.35 1260.69 1528.17C1262.45 1517.41 1265.96 1510.24 1273 1512.03C1278.27 1512.03 1283.55 1517.41 1285.3 1524.59C1287.06 1528.17 1288.82 1529.97 1283.55 1538.94C1278.27 1547.9 1287.06 1562.25 1287.06 1562.25C1287.06 1562.25 1287.06 1556.87 1292.34 1555.08C1292.34 1555.08 1290.58 1562.25 1301.13 1576.6C1301.13 1576.6 1297.61 1565.84 1302.89 1564.05C1306.4 1562.25 1311.68 1581.98 1320.47 1592.74C1329.26 1603.51 1350.36 1601.71 1350.36 1601.71C1350.36 1601.71 1336.29 1594.54 1331.02 1551.49C1327.5 1524.59 1311.68 1526.38 1301.13 1526.38C1295.85 1524.59 1292.34 1515.62 1288.82 1510.24C1285.3 1503.06 1278.27 1495.89 1271.24 1495.89C1264.2 1495.89 1258.93 1497.68 1253.65 1506.65C1248.38 1515.62 1248.38 1521 1248.38 1535.35C1248.38 1549.7 1253.65 1562.25 1258.93 1573.01C1267.72 1587.36 1287.06 1610.68 1287.06 1610.68C1287.06 1610.68 1309.92 1637.58 1315.19 1648.35C1320.47 1659.11 1318.71 1668.08 1315.19 1671.66C1309.92 1675.25 1294.09 1673.46 1290.58 1671.66C1287.06 1668.08 1274.75 1651.93 1274.75 1651.93C1274.75 1651.93 1243.1 1616.06 1239.59 1607.09C1236.07 1598.12 1236.07 1573.01 1239.59 1555.08C1244.86 1517.41 1237.83 1492.3 1237.83 1492.3C1244.86 1494.09 1246.62 1506.65 1246.62 1506.65C1253.65 1494.09 1246.62 1483.33 1246.62 1483.33C1257.17 1492.3 1264.2 1486.92 1264.2 1486.92C1248.38 1470.78 1253.65 1429.52 1253.65 1429.52C1253.65 1429.52 1260.69 1438.49 1264.2 1461.81C1280.03 1393.65 1246.62 1384.68 1246.62 1384.68C1260.69 1386.48 1274.75 1402.62 1274.75 1402.62C1262.45 1345.22 1234.31 1341.64 1207.94 1347.02C1216.73 1336.25 1244.86 1336.25 1244.86 1336.25C1244.86 1336.25 1211.46 1325.49 1192.11 1330.87C1195.63 1321.91 1209.7 1314.73 1209.7 1314.73C1186.84 1318.32 1178.05 1321.91 1165.74 1334.46C1167.5 1323.7 1171.01 1320.11 1171.01 1320.11C1171.01 1320.11 1151.67 1325.49 1144.64 1338.05C1137.61 1350.6 1142.88 1359.57 1151.67 1363.16C1151.67 1363.16 1146.4 1361.37 1144.64 1361.37C1137.61 1361.37 1127.06 1366.75 1123.54 1370.33C1120.02 1373.92 1104.2 1381.1 1098.93 1382.89C1095.41 1386.48 1097.17 1395.44 1098.93 1397.24C1100.68 1399.03 1100.68 1399.03 1100.68 1402.62C1100.68 1404.41 1102.44 1418.76 1109.48 1420.56L1116.51 1424.14C1116.51 1424.14 1112.99 1416.97 1125.3 1415.17C1137.61 1413.38 1153.43 1422.35 1135.85 1433.11C1130.57 1436.7 1121.78 1440.29 1116.51 1434.9C1114.75 1433.11 1114.75 1431.32 1114.75 1431.32C1114.75 1431.32 1111.23 1431.32 1109.48 1436.7C1107.72 1442.08 1107.72 1452.84 1114.75 1454.63C1121.78 1456.43 1139.37 1451.05 1146.4 1447.46C1155.19 1443.87 1163.98 1436.7 1163.98 1425.94C1163.98 1425.94 1172.77 1434.9 1155.19 1449.25C1137.61 1461.81 1098.93 1461.81 1098.93 1495.89C1098.93 1495.89 1104.2 1481.54 1120.02 1476.16C1120.02 1476.16 1097.17 1490.51 1100.68 1513.82C1104.2 1503.06 1118.27 1490.51 1130.57 1488.71C1130.57 1488.71 1100.68 1508.44 1104.2 1565.84V1567.63C1097.17 1551.49 1100.68 1528.17 1100.68 1528.17C1091.89 1528.17 1086.62 1517.41 1083.1 1510.24C1077.83 1486.92 1076.07 1485.13 1067.28 1479.75C1058.48 1476.16 1053.21 1474.36 1047.94 1474.36C1042.66 1474.36 1039.14 1479.75 1039.14 1481.54C1039.14 1483.33 1046.18 1479.75 1051.45 1485.13C1051.45 1485.13 1042.66 1483.33 1037.39 1486.92C1035.63 1488.71 1037.39 1497.68 1037.39 1497.68C1039.14 1499.48 1046.18 1495.89 1049.69 1497.68C1049.69 1497.68 1039.14 1499.48 1037.39 1501.27C1035.63 1504.86 1037.39 1510.24 1037.39 1512.03C1040.9 1515.62 1054.97 1510.24 1056.73 1533.55C1056.73 1535.35 1058.48 1538.94 1058.48 1540.73C1063.76 1547.9 1070.79 1546.11 1070.79 1546.11C1072.55 1549.7 1083.1 1564.05 1088.38 1573.01C1081.34 1574.81 1067.28 1578.4 1062 1578.4C1056.73 1578.4 1047.94 1571.22 1047.94 1571.22L1028.59 1560.46C1028.59 1560.46 1028.59 1569.43 1023.32 1567.63C1019.8 1567.63 1019.8 1556.87 1019.8 1556.87C1019.8 1556.87 1009.25 1560.46 1009.25 1567.63C1003.98 1567.63 1002.22 1580.19 1005.74 1585.57C993.429 1601.71 1021.56 1607.09 1021.56 1607.09C1021.56 1607.09 1040.9 1614.27 1046.18 1616.06C1051.45 1617.85 1062 1623.24 1069.03 1623.24C1076.07 1623.24 1088.38 1619.65 1088.38 1619.65C1088.38 1619.65 1100.68 1617.85 1107.72 1616.06C1107.72 1616.06 1123.54 1616.06 1142.88 1576.6C1142.88 1576.6 1139.37 1610.68 1114.75 1621.44C1114.75 1621.44 1121.78 1630.41 1128.82 1635.79C1134.09 1642.97 1146.4 1653.73 1151.67 1657.31C1160.47 1664.49 1183.32 1673.46 1188.6 1680.63C1193.87 1687.81 1195.63 1700.36 1195.63 1700.36C1195.63 1700.36 1195.63 1696.77 1199.15 1696.77C1202.66 1696.77 1206.18 1709.33 1206.18 1709.33C1206.18 1709.33 1209.7 1696.77 1211.46 1700.36C1214.97 1703.95 1218.49 1711.12 1218.49 1718.3C1218.49 1725.47 1214.97 1730.85 1214.97 1730.85L1193.87 1755.96C1179.81 1770.31 1176.29 1772.11 1172.77 1779.28C1169.26 1784.66 1165.74 1788.25 1163.98 1793.63C1162.22 1800.81 1162.22 1807.98 1167.5 1824.12C1171.02 1836.68 1165.74 1860 1156.95 1860C1134.09 1860 1134.09 1854.61 1127.06 1861.79C1120.02 1868.96 1112.99 1881.52 1112.99 1883.31C1114.75 1888.69 1120.02 1890.49 1121.78 1890.49C1123.54 1890.49 1121.78 1877.93 1128.82 1874.34C1128.82 1874.34 1123.54 1883.31 1125.3 1890.49C1127.06 1897.66 1134.09 1895.87 1134.09 1895.87C1134.09 1894.07 1134.09 1885.11 1137.61 1883.31C1137.61 1883.31 1137.61 1894.07 1137.61 1895.87C1139.37 1897.66 1142.88 1901.25 1148.16 1897.66C1153.43 1894.07 1156.95 1883.31 1176.29 1886.9C1186.84 1888.69 1188.6 1886.9 1188.6 1881.52C1188.6 1874.34 1193.87 1863.58 1197.39 1852.82C1199.15 1849.23 1202.66 1847.44 1204.42 1847.44C1206.18 1849.23 1206.18 1851.03 1206.18 1851.03C1206.18 1851.03 1207.94 1845.65 1206.18 1842.06C1206.18 1842.06 1207.94 1842.06 1209.7 1843.85C1209.7 1843.85 1209.7 1838.47 1206.18 1836.68C1204.42 1833.09 1200.91 1824.12 1202.66 1818.74C1206.18 1809.77 1223.76 1793.63 1251.9 1793.63C1239.59 1781.08 1237.83 1773.9 1236.07 1759.55C1232.55 1739.82 1236.07 1721.89 1236.07 1721.89C1236.07 1721.89 1237.83 1750.58 1243.1 1759.55C1264.2 1807.98 1327.5 1820.54 1327.5 1820.54C1327.5 1820.54 1329.26 1831.3 1327.5 1840.27C1322.23 1858.2 1320.47 1865.38 1320.47 1865.38C1320.47 1865.38 1301.13 1863.58 1290.58 1860C1281.79 1858.2 1273 1883.31 1273 1885.11C1273 1886.9 1278.27 1892.28 1280.03 1892.28C1281.79 1892.28 1281.79 1881.52 1288.82 1877.93C1288.82 1877.93 1281.79 1886.9 1283.55 1892.28C1285.3 1895.87 1288.82 1895.87 1290.58 1895.87C1292.34 1895.87 1290.58 1886.9 1294.09 1883.31C1294.09 1883.31 1292.34 1894.07 1295.85 1895.87C1301.13 1899.45 1301.13 1897.66 1304.64 1895.87C1308.16 1894.07 1323.99 1892.28 1331.02 1892.28C1338.05 1892.28 1339.81 1876.14 1348.6 1861.79C1357.39 1847.44 1359.15 1836.68 1362.67 1836.68C1366.18 1836.68 1367.94 1845.65 1362.67 1849.23C1366.18 1849.23 1374.98 1843.85 1371.46 1836.68ZM1144.64 1386.48C1141.12 1390.06 1125.3 1388.27 1127.06 1381.1C1128.82 1373.92 1139.37 1372.13 1144.64 1375.71C1149.92 1381.1 1144.64 1384.68 1144.64 1386.48Z" fill="#D21B33"/>
<path d="M1042.66 1512.03L1032.11 1560.46L1033.87 1562.25L1044.42 1513.82C1044.42 1512.03 1042.66 1512.03 1042.66 1512.03Z" fill="black"/>
<path d="M1062 1540.73C1060.24 1540.73 1058.48 1538.94 1056.73 1537.14L1058.48 1573.01H1060.24C1062 1573.01 1062 1573.01 1063.76 1573.01L1062 1540.73Z" fill="black"/>
<path d="M1019.81 1549.7C1019.81 1551.49 1019.81 1551.49 1019.81 1553.28C1019.81 1555.08 1021.56 1564.05 1023.32 1564.05C1028.6 1565.84 1028.6 1558.67 1028.6 1556.87C1028.6 1553.28 1028.6 1549.7 1028.6 1546.11C1023.32 1452.84 1053.21 1379.3 1053.21 1379.3L1056.73 1454.63L1053.21 1474.36H1054.97L1056.73 1465.4V1474.36C1058.49 1474.36 1060.25 1476.16 1062 1476.16L1060.25 1445.67L1081.35 1345.22L1090.14 1336.25L1086.62 1314.73L1074.31 1332.67L1079.59 1343.43L1060.25 1434.9L1054.97 1366.75C1054.97 1366.75 1051.45 1359.57 1051.45 1357.78C1049.7 1355.98 1044.42 1354.19 1042.66 1355.98C1040.91 1357.78 1042.66 1363.16 1044.42 1364.95C1046.18 1368.54 1053.21 1372.13 1053.21 1372.13C1053.21 1372.13 1012.77 1438.49 1019.81 1549.7Z" fill="black"/>
<path d="M1060.24 1617.85L1063.76 1703.95C1063.76 1703.95 1046.18 1668.08 1033.87 1608.89C1030.35 1607.09 1026.84 1607.09 1025.08 1605.3C1037.39 1677.04 1063.76 1709.33 1063.76 1709.33C1063.76 1709.33 1060.24 1714.71 1056.73 1720.09C1053.21 1725.47 1053.21 1727.27 1054.97 1729.06C1056.73 1730.85 1060.24 1729.06 1063.76 1723.68C1067.28 1718.3 1067.28 1712.92 1067.28 1712.92L1063.76 1619.65C1063.76 1617.85 1062 1617.85 1060.24 1617.85Z" fill="black"/>
<path d="M1418.94 1849.23C1413.66 1845.65 1415.42 1836.68 1418.94 1836.68C1422.45 1836.68 1424.21 1847.44 1433 1861.79C1441.79 1876.14 1443.55 1892.28 1450.59 1892.28C1457.62 1892.28 1473.44 1894.07 1476.96 1895.87C1480.48 1897.66 1480.48 1899.45 1485.75 1895.87C1491.03 1892.28 1487.51 1883.31 1487.51 1883.31C1491.03 1886.9 1489.27 1895.87 1491.03 1895.87C1492.78 1895.87 1496.3 1895.87 1498.06 1892.28C1499.82 1886.9 1492.78 1877.93 1492.78 1877.93C1499.82 1881.52 1499.82 1892.28 1501.58 1892.28C1503.33 1892.28 1508.61 1888.69 1508.61 1885.11C1508.61 1883.31 1499.82 1858.2 1491.03 1859.99C1480.48 1863.58 1461.14 1865.38 1461.14 1865.38C1461.14 1865.38 1457.62 1858.2 1454.1 1840.26C1452.34 1831.3 1454.1 1820.53 1454.1 1820.53C1454.1 1820.53 1517.4 1807.98 1538.5 1759.55C1545.53 1750.58 1547.29 1721.89 1547.29 1721.89C1547.29 1721.89 1550.81 1739.82 1549.05 1752.38C1547.29 1766.73 1545.53 1773.9 1533.22 1786.46C1561.36 1786.46 1578.94 1804.39 1582.46 1811.57C1584.21 1815.15 1582.46 1825.92 1578.94 1829.5C1575.42 1831.3 1575.42 1836.68 1575.42 1836.68C1577.18 1834.88 1578.94 1834.88 1578.94 1834.88C1577.18 1838.47 1578.94 1843.85 1578.94 1843.85C1578.94 1843.85 1578.94 1840.26 1580.7 1840.26C1582.46 1838.47 1584.21 1840.26 1587.73 1845.65C1593.01 1858.2 1596.52 1867.17 1596.52 1874.34C1596.52 1879.72 1600.04 1881.52 1608.83 1879.72C1628.17 1877.93 1631.69 1886.9 1636.96 1890.49C1642.24 1894.07 1645.75 1892.28 1647.51 1888.69C1649.27 1885.11 1647.51 1876.14 1647.51 1876.14C1651.03 1877.93 1649.27 1888.69 1651.03 1888.69C1651.03 1890.49 1658.06 1890.49 1659.82 1883.31C1661.58 1876.14 1656.3 1867.17 1656.3 1867.17C1663.34 1870.76 1661.58 1883.31 1663.34 1883.31C1665.1 1883.31 1670.37 1881.52 1672.13 1876.14C1672.13 1872.55 1665.1 1861.79 1658.06 1854.61C1651.03 1847.44 1651.03 1852.82 1628.17 1852.82C1619.38 1852.82 1614.11 1831.3 1617.62 1816.95C1621.14 1800.81 1622.9 1793.63 1621.14 1786.46C1619.38 1779.28 1615.86 1775.69 1612.35 1772.11C1608.83 1766.73 1605.31 1764.93 1591.25 1748.79L1570.15 1723.68C1570.15 1723.68 1566.63 1718.3 1566.63 1711.12C1566.63 1703.95 1570.15 1696.77 1573.67 1693.19C1577.18 1689.6 1578.94 1702.16 1578.94 1702.16C1578.94 1702.16 1582.46 1689.6 1585.97 1689.6C1589.49 1689.6 1589.49 1693.19 1589.49 1693.19C1589.49 1693.19 1593.01 1682.43 1596.52 1673.46C1600.04 1666.28 1624.66 1657.31 1633.45 1650.14C1638.72 1646.55 1651.03 1634 1656.3 1628.62C1661.58 1621.44 1670.37 1614.27 1670.37 1614.27C1644 1603.51 1642.24 1569.43 1642.24 1569.43C1661.58 1608.89 1677.4 1608.89 1677.4 1608.89C1686.2 1608.89 1696.74 1612.47 1696.74 1612.47C1696.74 1612.47 1709.05 1616.06 1716.09 1616.06C1723.12 1616.06 1733.67 1610.68 1738.94 1608.89C1744.22 1607.09 1763.56 1599.92 1763.56 1599.92C1763.56 1599.92 1791.69 1594.54 1779.38 1578.39C1782.9 1573.01 1781.14 1560.46 1775.87 1560.46C1775.87 1553.28 1765.32 1549.7 1765.32 1549.7C1765.32 1549.7 1765.32 1560.46 1761.8 1560.46C1756.53 1562.25 1756.53 1553.28 1756.53 1553.28L1737.19 1564.05C1737.19 1564.05 1728.39 1571.22 1723.12 1571.22C1717.84 1571.22 1703.78 1567.63 1696.74 1565.84C1702.02 1556.87 1714.33 1540.73 1714.33 1538.94C1714.33 1537.14 1721.36 1538.93 1726.64 1533.55C1728.39 1531.76 1728.39 1529.97 1728.39 1526.38C1730.15 1504.86 1744.22 1510.24 1747.74 1504.86C1749.49 1503.06 1749.49 1497.68 1747.74 1494.09C1745.98 1492.3 1735.43 1490.51 1735.43 1490.51C1740.7 1488.71 1747.74 1490.51 1747.74 1490.51C1747.74 1490.51 1749.49 1483.33 1747.74 1479.75C1740.7 1477.95 1733.67 1477.95 1733.67 1477.95C1738.94 1472.57 1745.98 1476.16 1747.74 1474.36C1747.74 1472.57 1744.22 1467.19 1738.94 1467.19C1733.67 1467.19 1728.39 1467.19 1719.6 1472.57C1710.81 1476.16 1710.81 1479.75 1703.78 1503.06C1700.26 1512.03 1694.99 1521 1686.2 1521C1686.2 1521 1689.71 1544.32 1682.68 1560.46V1558.66C1687.95 1503.06 1656.3 1481.54 1656.3 1481.54C1670.37 1483.33 1682.68 1494.09 1686.2 1506.65C1687.95 1481.54 1666.85 1468.98 1666.85 1468.98C1684.44 1474.36 1687.95 1488.71 1687.95 1488.71C1687.95 1454.63 1649.27 1454.63 1631.69 1442.08C1614.11 1429.52 1622.9 1418.76 1622.9 1418.76C1622.9 1429.52 1633.45 1434.9 1640.48 1440.29C1647.51 1443.87 1665.1 1449.25 1672.13 1447.46C1679.16 1445.67 1679.16 1434.9 1677.4 1429.52C1675.65 1424.14 1672.13 1424.14 1672.13 1424.14C1672.13 1424.14 1672.13 1425.94 1670.37 1427.73C1665.1 1434.9 1656.3 1429.52 1651.03 1425.94C1635.21 1415.17 1651.03 1406.21 1661.58 1408C1673.89 1409.79 1670.37 1416.97 1670.37 1416.97L1677.4 1413.38C1684.44 1409.79 1686.2 1397.24 1686.2 1395.44C1686.2 1393.65 1686.2 1393.65 1687.95 1390.06C1689.71 1388.27 1691.47 1379.3 1687.95 1375.71C1684.44 1372.13 1668.61 1366.75 1663.34 1363.16C1659.82 1359.57 1649.27 1354.19 1642.24 1354.19C1640.48 1354.19 1635.21 1355.98 1635.21 1355.98C1642.24 1352.4 1647.51 1343.43 1642.24 1330.87C1635.21 1318.32 1615.86 1312.94 1615.86 1312.94C1615.86 1312.94 1619.38 1318.32 1621.14 1327.29C1608.83 1316.52 1600.04 1311.14 1577.18 1307.56C1577.18 1307.56 1591.25 1314.73 1594.76 1323.7C1573.67 1318.32 1542.02 1329.08 1542.02 1329.08C1542.02 1329.08 1570.15 1327.29 1578.94 1339.84C1554.32 1332.67 1524.43 1336.25 1512.13 1395.44C1512.13 1395.44 1526.19 1379.3 1540.26 1377.51C1540.26 1377.51 1505.09 1386.48 1522.68 1454.63C1526.19 1429.52 1533.22 1422.35 1533.22 1422.35C1533.22 1422.35 1538.5 1463.6 1522.68 1479.75C1522.68 1479.75 1529.71 1485.13 1540.26 1476.16C1540.26 1476.16 1533.22 1486.92 1540.26 1499.48C1540.26 1499.48 1542.02 1486.92 1549.05 1485.13C1549.05 1485.13 1542.02 1510.24 1547.29 1547.9C1550.81 1565.84 1550.81 1589.16 1547.29 1599.92C1543.77 1608.89 1512.13 1644.76 1512.13 1644.76C1512.13 1644.76 1501.58 1660.9 1496.3 1664.49C1492.78 1668.08 1475.2 1669.87 1471.68 1664.49C1466.41 1660.9 1464.65 1651.93 1471.68 1641.17C1476.96 1630.41 1499.82 1603.51 1499.82 1603.51C1499.82 1603.51 1519.16 1580.19 1527.95 1565.84C1533.22 1556.87 1538.5 1542.52 1538.5 1528.17C1538.5 1513.82 1538.5 1508.44 1533.22 1499.48C1527.95 1490.51 1522.67 1488.71 1515.64 1488.71C1508.61 1488.71 1501.58 1495.89 1498.06 1503.06C1494.54 1510.24 1491.03 1519.2 1485.75 1519.2C1475.2 1519.2 1459.38 1517.41 1455.86 1544.32C1450.59 1587.36 1436.52 1594.54 1436.52 1594.54C1436.52 1594.54 1457.62 1596.33 1466.41 1585.57C1475.2 1574.81 1480.48 1555.08 1483.99 1556.87C1489.27 1558.66 1485.75 1569.43 1485.75 1569.43C1496.3 1555.08 1494.54 1547.9 1494.54 1547.9C1499.82 1549.7 1499.82 1555.08 1499.82 1555.08C1499.82 1555.08 1508.61 1540.73 1503.33 1531.76C1499.82 1522.79 1501.58 1521 1501.58 1517.41C1503.33 1510.24 1508.61 1506.65 1513.88 1504.86C1520.92 1504.86 1524.43 1510.24 1526.19 1521C1527.95 1528.17 1524.43 1537.14 1519.16 1546.11C1513.88 1556.87 1491.03 1587.36 1491.03 1587.36C1491.03 1587.36 1464.65 1617.85 1459.38 1625.03C1445.31 1646.55 1448.83 1668.08 1454.1 1673.46C1459.38 1678.84 1466.41 1689.6 1468.17 1694.98C1468.17 1700.36 1464.65 1703.95 1464.65 1714.71C1464.65 1725.47 1471.68 1734.44 1471.68 1741.62C1471.68 1748.79 1464.65 1754.17 1454.1 1761.35C1443.55 1768.52 1425.97 1779.28 1425.97 1779.28C1420.69 1782.87 1413.66 1793.63 1417.18 1800.81C1418.94 1804.39 1417.18 1815.15 1417.18 1815.15C1417.18 1822.33 1418.94 1822.33 1415.42 1829.5C1410.14 1843.85 1418.94 1849.23 1418.94 1849.23ZM1640.48 1375.71C1645.75 1372.13 1656.3 1372.13 1658.06 1381.1C1659.82 1388.27 1644 1390.06 1640.48 1386.48C1638.72 1384.68 1635.21 1381.1 1640.48 1375.71Z" fill="#D21B33"/>
<path d="M1742.46 1512.03L1753.01 1558.66L1749.49 1560.46L1740.7 1513.82C1740.7 1512.03 1740.7 1512.03 1742.46 1512.03Z" fill="black"/>
<path d="M1721.36 1540.73C1723.12 1540.73 1724.88 1538.94 1726.63 1537.14L1724.88 1573.01H1723.12C1721.36 1573.01 1721.36 1573.01 1719.6 1573.01L1721.36 1540.73Z" fill="black"/>
<path d="M1765.32 1549.7C1765.32 1551.49 1765.32 1551.49 1765.32 1553.28C1765.32 1555.08 1763.56 1564.05 1761.8 1564.05C1756.52 1565.84 1756.52 1558.67 1756.52 1556.87C1756.52 1553.28 1756.52 1549.7 1756.52 1546.11C1761.8 1452.84 1731.91 1379.3 1731.91 1379.3L1728.39 1454.63L1731.91 1474.36H1730.15L1728.39 1465.4V1474.36C1726.63 1474.36 1724.88 1476.16 1723.12 1476.16L1724.88 1445.67L1703.78 1345.22L1694.98 1336.25L1698.5 1314.73L1710.81 1332.67L1707.29 1345.22L1726.63 1436.7L1730.15 1366.75C1730.15 1366.75 1733.67 1359.57 1733.67 1357.78C1735.42 1355.98 1740.7 1354.19 1742.46 1355.98C1744.22 1357.78 1742.46 1363.16 1740.7 1364.95C1738.94 1368.54 1731.91 1372.13 1731.91 1372.13C1731.91 1372.13 1772.35 1438.49 1765.32 1549.7Z" fill="black"/>
<path d="M1723.12 1617.85L1719.6 1703.95C1719.6 1703.95 1737.18 1668.08 1749.49 1608.89C1753.01 1607.09 1756.52 1607.09 1758.28 1605.3C1745.97 1677.04 1719.6 1709.33 1719.6 1709.33C1719.6 1709.33 1723.12 1714.71 1726.63 1720.09C1730.15 1725.47 1730.15 1727.27 1728.39 1729.06C1726.63 1730.85 1723.12 1729.06 1719.6 1723.68C1716.08 1718.3 1716.08 1712.92 1716.08 1712.92L1719.6 1619.65C1719.6 1617.85 1721.36 1617.85 1723.12 1617.85Z" fill="black"/>
</g>
<defs>
<clipPath id="clip0_3928_2105">
<rect width="2834" height="2816" fill="white"/>
</clipPath>
</defs>
</svg>
